<?xml version="1.0" encoding="utf-8"?>
<!-- Generator: Adobe Illustrator 25.4.1, SVG Export Plug-In . SVG Version: 6.00 Build 0)  -->
<svg version="1.1" id="Pendidikan" xmlns="http://www.w3.org/2000/svg" xmlns:xlink="http://www.w3.org/1999/xlink" x="0px" y="0px"
	 viewBox="0 0 128 128" style="enable-background:new 0 0 128 128;" xml:space="preserve">
<style type="text/css">
	.st0{fill:#FFFFFF;}
	.st1{fill:#4285F4;}
</style>
<circle class="st0" cx="64" cy="64" r="64"/>
<path class="st1" d="M64,0C28.7,0,0,28.7,0,64s28.7,64,64,64s64-28.7,64-64S99.3,0,64,0z M64,122C32,122,6,96,6,64S32,6,64,6
	s58,26,58,58S96,122,64,122z"/>
<g>
	<path d="M27.6,35l-5.3-4.8l1.5-1.6c0.7-0.8,1.6-1.2,2.5-1.3c0.9-0.1,1.8,0.3,2.6,1c0.8,0.7,1.2,1.5,1.3,2.5c0,0.9-0.3,1.8-1,2.6
		L27.6,35z M23.6,30.1l4,3.6l0.8-0.9c0.6-0.6,0.8-1.3,0.8-1.9c0-0.7-0.4-1.3-1-1.9c-0.6-0.6-1.3-0.8-2-0.8c-0.7,0-1.3,0.4-1.9,1
		L23.6,30.1z"/>
	<path d="M33,29.4L32.3,30l-4.8-5.3l0.7-0.6L33,29.4z"/>
	<path d="M36.3,26.7l-0.8,0.6l-6.3-4.2l0.8-0.6l5.1,3.4l0,0l-1.9-5.9l0.8-0.6L36.3,26.7z"/>
	<path d="M40,24.3l-0.8,0.5l-3.8-6.1l0.8-0.5L40,24.3z"/>
	<path d="M44.2,19.8c0.3,0.6,0.3,1.1,0.1,1.7c-0.2,0.5-0.7,1-1.3,1.3C42.5,23,42,23.1,41.4,23s-1.1-0.4-1.5-0.8l0.6-0.7
		c0.2,0.2,0.3,0.3,0.5,0.4c0.2,0.1,0.4,0.2,0.5,0.2s0.4,0.1,0.6,0c0.2,0,0.4-0.1,0.5-0.2c0.4-0.2,0.6-0.4,0.8-0.8
		c0.1-0.3,0.1-0.6,0-1c-0.1-0.3-0.4-0.4-0.6-0.5c-0.3-0.1-0.7-0.1-1.3,0c-0.6,0.1-1,0.1-1.1,0.1c-0.9,0-1.4-0.3-1.8-1
		c-0.2-0.5-0.3-1-0.1-1.5c0.2-0.5,0.6-0.9,1.1-1.2c0.5-0.2,1-0.3,1.5-0.3c0.5,0.1,0.9,0.2,1.2,0.6l-0.6,0.7
		c-0.2-0.2-0.4-0.3-0.7-0.4s-0.6,0-0.9,0.2c-0.3,0.2-0.5,0.4-0.7,0.7c-0.1,0.3-0.1,0.5,0,0.8c0.1,0.2,0.3,0.4,0.5,0.4
		c0.3,0.1,0.8,0,1.5-0.1c0.8-0.1,1.4-0.1,1.8,0.1C43.7,19,44,19.3,44.2,19.8z"/>
	<path d="M47.1,20.7l-0.9,0.3l-2.7-6.6l0.9-0.3L47.1,20.7z"/>
	<path d="M51,16.4l0.7,2.8l-0.9,0.2l-1.7-6.9l2.4-0.6c0.6-0.1,1.2-0.1,1.7,0.2c0.5,0.3,0.9,0.7,1,1.3c0.1,0.6,0.1,1.1-0.3,1.6
		c-0.3,0.5-0.8,0.8-1.4,1L51,16.4z M50.2,13.1l0.6,2.4l1.5-0.4c0.4-0.1,0.6-0.3,0.8-0.6c0.2-0.3,0.2-0.6,0.1-0.9
		c-0.1-0.3-0.3-0.6-0.6-0.8c-0.3-0.2-0.6-0.2-1-0.2L50.2,13.1z"/>
	<path d="M59.3,10.6l0.1,0.9l-3.2,0.4l0.3,2.3l2.9-0.4l0.1,0.9L56.6,15l0.3,2.3l3.2-0.4l0.1,0.9l-4.1,0.5l-0.9-7.1L59.3,10.6z"/>
	<path d="M62.3,17.5l-0.9,0l0.1-7.2l1.1,0L66,16l0,0l0-1.4l0.1-4.2l0.9,0l-0.1,7.2l-1,0l-3.5-5.9h0l0,1.4L62.3,17.5z"/>
	<path d="M68.2,17.7l1.1-7.1l2.2,0.3c1.1,0.2,1.9,0.6,2.5,1.4c0.6,0.8,0.8,1.7,0.6,2.7c-0.2,1.1-0.6,1.9-1.4,2.4
		c-0.8,0.6-1.7,0.7-2.8,0.6L68.2,17.7z M70.1,11.6L69.3,17l1.3,0.2c0.8,0.1,1.5,0,2.1-0.4s0.9-1,1-1.9c0.1-0.8,0-1.5-0.4-2.1
		c-0.4-0.5-1-0.9-1.8-1L70.1,11.6z"/>
	<path d="M75.9,19.1L75,18.9l1.8-6.9l0.9,0.2L75.9,19.1z"/>
	<path d="M77.4,19.5l2.5-6.7l2.1,0.8c1,0.4,1.7,1,2.1,1.8s0.4,1.8,0,2.8c-0.4,1-1,1.7-1.8,2.1c-0.9,0.4-1.8,0.4-2.8,0L77.4,19.5z
		 M80.4,13.9l-1.9,5.1l1.2,0.4c0.8,0.3,1.5,0.3,2.1,0c0.6-0.3,1.1-0.8,1.4-1.6c0.3-0.8,0.3-1.5,0-2.1c-0.3-0.6-0.8-1.1-1.6-1.4
		L80.4,13.9z"/>
	<path d="M84.6,22.4L83.8,22l3.1-6.4l0.8,0.4L84.6,22.4z"/>
	<path d="M93.1,19l1,0.6l0,0l-3.9,1.3l0.4,4.9l0,0l-1-0.6l-0.3-4.1l-1.6,0.5l-1.1,1.8L85.9,23l3.7-6.1l0.8,0.5l-1.9,3.2l0,0L93.1,19
		z"/>
	<path d="M91.5,26.5l-0.8-0.6l6.6-3.9l0.8,0.7l-2.4,7.3l-0.8-0.6l0.7-1.9l-2.3-1.9L91.5,26.5z M97,23.2L94,25l1.8,1.5L97,23.2
		L97,23.2z"/>
	<path d="M96.8,31.1l-0.6-0.7l5.2-4.9l0.8,0.8l-1.7,6.3l0,0l1-1l3.1-2.8l0.6,0.7l-5.2,4.9l-0.7-0.7l1.8-6.6l0,0l-1,1L96.8,31.1z"/>
</g>
<g>
	<path d="M19.3,40.8c-0.3-0.2-0.5-0.4-0.6-0.7c-0.1-0.3-0.1-0.6,0.1-0.9c0.2-0.3,0.4-0.5,0.7-0.6c0.3-0.1,0.6-0.1,0.9,0.1
		c0.3,0.2,0.5,0.4,0.6,0.7c0.1,0.3,0.1,0.6-0.1,0.9c-0.2,0.3-0.4,0.5-0.7,0.6C19.9,41,19.6,40.9,19.3,40.8z"/>
	<path d="M15.8,48.1l-2.8-0.8l0.3-0.9l6.8,2.1l-0.7,2.3c-0.2,0.6-0.5,1-1.1,1.3c-0.5,0.3-1.1,0.4-1.6,0.2c-0.6-0.2-1-0.5-1.3-1.1
		c-0.3-0.5-0.3-1.1-0.1-1.7L15.8,48.1z M19.1,49.1l-2.4-0.7l-0.4,1.5c-0.1,0.3-0.1,0.7,0.1,1c0.2,0.3,0.4,0.5,0.7,0.6
		c0.3,0.1,0.6,0.1,0.9-0.1c0.3-0.2,0.5-0.4,0.6-0.8L19.1,49.1z"/>
	<path d="M17.9,57.9l-0.9-0.2l0.6-3.2l-2.2-0.4l-0.5,2.9L14,56.9l0.5-2.9l-2.2-0.4l-0.6,3.2l-0.9-0.2l0.7-4.1l7,1.3L17.9,57.9z"/>
	<path d="M10.5,59.7l0-0.9l7.2,0.2l0,0.9l-4.4,2.3l0,0l4.3,2.6l0,0.9l-7.2-0.2l0-0.9l4.2,0.1l1.2,0.1l0,0L12,62.5l0-0.5l4-2.1l0,0
		h-1.2L10.5,59.7z"/>
	<path d="M10.5,67.9l7.1-0.8l0.3,2.6c0.1,0.6-0.1,1.1-0.4,1.5c-0.3,0.4-0.8,0.7-1.3,0.8c-0.7,0.1-1.2-0.2-1.6-0.8l0,0
		c-0.1,0.4-0.2,0.7-0.5,0.9c-0.3,0.2-0.6,0.4-1,0.4c-0.6,0.1-1.1-0.1-1.5-0.5c-0.4-0.4-0.7-0.9-0.8-1.5L10.5,67.9z M13.8,68.5
		l-2.3,0.3l0.2,1.8c0,0.3,0.2,0.6,0.4,0.8s0.5,0.3,0.9,0.2c0.3,0,0.6-0.2,0.8-0.4s0.3-0.6,0.2-0.9L13.8,68.5z M16.9,68.1l-2.2,0.2
		l0.2,1.7c0,0.3,0.2,0.6,0.4,0.8c0.2,0.2,0.5,0.3,0.8,0.2c0.3,0,0.5-0.2,0.7-0.4c0.2-0.2,0.3-0.5,0.2-0.8L16.9,68.1z"/>
	<path d="M19.4,77l-0.9,0.2l-0.8-3.2l-2.2,0.5l0.7,2.9l-0.8,0.2l-0.7-2.9l-2.2,0.5l0.8,3.2l-0.9,0.2l-1-4.1l7-1.7L19.4,77z"/>
	<path d="M13.3,81.6L13,80.7l6.7-2.5l0.9,2.3c0.2,0.6,0.2,1.1,0,1.7c-0.2,0.6-0.6,0.9-1.2,1.1c-0.5,0.2-0.9,0.2-1.4,0
		c-0.5-0.2-0.8-0.5-1.1-0.9l0,0l-2,2.9l0,0l-0.4-1l2-2.8l-0.4-1L13.3,81.6z M19.2,79.4l-2.4,0.9l0.5,1.4c0.1,0.3,0.4,0.6,0.7,0.8
		s0.6,0.2,1,0.1c0.3-0.1,0.5-0.3,0.7-0.6c0.1-0.3,0.2-0.6,0-1L19.2,79.4z"/>
	<path d="M15.4,86.8l6.3-3.4l1,1.9c0.5,1,0.6,1.9,0.4,2.8c-0.3,0.9-0.9,1.6-1.8,2.1c-0.9,0.5-1.9,0.6-2.8,0.3
		c-0.9-0.3-1.6-0.9-2.1-1.9L15.4,86.8z M21.4,84.7l-4.8,2.6l0.6,1.1c0.4,0.7,0.9,1.2,1.6,1.4c0.6,0.2,1.3,0.1,2.1-0.3
		c0.7-0.4,1.2-0.9,1.4-1.6c0.2-0.7,0.1-1.3-0.3-2.1L21.4,84.7z"/>
	<path d="M19.3,93.6l-0.6-0.8l7.4-2l0.6,0.8L22.5,98l-0.6-0.8l1.2-1.7l-1.8-2.4L19.3,93.6z M25.5,91.9l-3.3,0.9l1.4,1.9L25.5,91.9
		L25.5,91.9z"/>
	<path d="M27.4,98.5l-2.4,2.3l-0.6-0.7l2.4-2.3l1.2-4.4l0.7,0.8l-0.9,3.3l0,0l3.3-0.7l0.7,0.8L27.4,98.5z"/>
	<path d="M27.5,103.3l-0.8-0.7l6.7-3.7l0.8,0.7l-2.6,7.2l-0.8-0.7l0.7-1.9l-2.3-2L27.5,103.3z M33.1,100.1l-3,1.7l1.8,1.6
		L33.1,100.1L33.1,100.1z"/>
	<path d="M33.4,108l-0.9-0.5l6.1-4.6l0.9,0.6l-1.6,7.5l-0.9-0.5l0.5-2l-2.5-1.6L33.4,108z M38.5,104.1l-2.7,2.1l2,1.3L38.5,104.1
		L38.5,104.1z"/>
	<path d="M40.3,112.1l-0.8-0.4l2.9-6.5l1,0.5l0.9,6.5l0,0l0.5-1.3l1.7-3.8l0.8,0.4l-2.9,6.5l-0.9-0.4l-0.9-6.8l0,0l-0.5,1.3
		L40.3,112.1z"/>
	<path d="M51.5,116.3c-0.8-0.2-1.3-0.6-1.7-1.2c-0.4-0.6-0.4-1.3-0.2-2.2l1-4.4l0.9,0.2l-1,4.4c-0.1,0.6-0.1,1.1,0.1,1.5
		c0.2,0.4,0.6,0.7,1.1,0.8s1,0.1,1.4-0.2c0.4-0.3,0.6-0.7,0.8-1.2l1-4.4l0.9,0.2l-1,4.4c-0.2,0.8-0.6,1.5-1.2,1.8
		C53,116.4,52.3,116.5,51.5,116.3z"/>
	<path d="M57.2,117.2l-0.9-0.1l0.6-7.1l0.9,0.1l2.1,4.5l0,0l2.8-4.2l0.9,0.1l-0.6,7.1l-0.9-0.1l0.3-4.2l0.1-1.2l0,0l-2.5,3.7l-0.5,0
		l-1.9-4.1h0l-0.1,1.2L57.2,117.2z"/>
	<path d="M65.9,117.6l-1,0.1l2.1-7.3l1-0.1l3.2,6.9l-1,0.1l-0.8-1.9l-3,0.2L65.9,117.6z M67.6,111.4l-0.9,3.3l2.4-0.2L67.6,111.4
		L67.6,111.4z"/>
	<path d="M73.5,110.4l1.2,6.2l-0.9,0.2l-1.2-6.2l-2,0.4l-0.2-0.9l4.8-0.9l0.2,0.9L73.5,110.4z"/>
	<path d="M80.9,114.9l-2.5-6.7l2.4-0.9c0.5-0.2,1.1-0.2,1.6,0c0.5,0.2,0.9,0.6,1.1,1.1c0.3,0.7,0.1,1.2-0.4,1.7l0,0
		c0.4,0,0.7,0.1,1,0.3s0.5,0.5,0.7,0.8c0.2,0.5,0.2,1.1-0.1,1.6c-0.2,0.5-0.7,0.9-1.2,1.1L80.9,114.9z M79.6,108.7l0.8,2l1.6-0.6
		c0.3-0.1,0.5-0.3,0.6-0.6c0.1-0.3,0.1-0.6,0-0.8c-0.1-0.3-0.3-0.5-0.6-0.6c-0.3-0.1-0.6-0.1-0.9,0L79.6,108.7z M80.6,111.6l0.8,2.2
		l1.7-0.7c0.3-0.1,0.5-0.3,0.7-0.6c0.1-0.3,0.1-0.6,0-0.9c-0.1-0.3-0.3-0.5-0.6-0.6s-0.6-0.1-0.9,0L80.6,111.6z"/>
	<path d="M87.6,104.1l0.4,0.8l-2.9,1.5l1.1,2l2.6-1.4l0.4,0.8l-2.6,1.4l1.1,2l2.9-1.5l0.4,0.8l-3.7,1.9l-3.3-6.3L87.6,104.1z"/>
	<path d="M93.4,108.8l-0.8,0.5l-4.1-5.9l2-1.4c0.5-0.4,1.1-0.5,1.7-0.4s1.1,0.4,1.4,0.9c0.3,0.4,0.4,0.9,0.4,1.4
		c-0.1,0.5-0.2,0.9-0.6,1.3l0,0l3.3,1.2l0,0l-0.9,0.6l-3.2-1.3l-0.8,0.6L93.4,108.8z M89.8,103.7l1.4,2.1l1.2-0.8
		c0.3-0.2,0.5-0.5,0.6-0.8s0-0.7-0.2-1c-0.2-0.3-0.5-0.4-0.8-0.5c-0.3-0.1-0.7,0-1,0.2L89.8,103.7z"/>
	<path d="M96.3,97.4l0.9-0.8l0,0l0.1,4.1l4.8,1.1l0,0l-0.8,0.8l-4-0.9l0,1.7l1.4,1.5l-0.7,0.6l-4.8-5.3l0.7-0.6l2.5,2.7l0,0
		L96.3,97.4z"/>
	<path d="M100.4,92.8l0.7,0.6L99,95.9l1.7,1.5l1.9-2.2l0.6,0.6l-1.9,2.2l1.7,1.5l2.1-2.5l0.7,0.6l-2.7,3.2L97.7,96L100.4,92.8z"/>
	<path d="M109.3,92.6l-2.3,3.3l-5.9-4.1l0.5-0.8l5.2,3.6l1.8-2.6L109.3,92.6z"/>
	<path d="M110.5,90.8l-0.5,0.9l-5.1-5.7l0.5-0.9L113,86l-0.5,0.9l-2-0.3l-1.4,2.7L110.5,90.8z M106.1,86l2.3,2.5l1.1-2.1L106.1,86
		L106.1,86z"/>
	<path d="M113.9,83.5l-0.3,0.9l-6.8-2.4l0.4-1.1l6.4-1.4l0,0l-1.3-0.4l-3.9-1.4l0.3-0.9l6.8,2.4l-0.3,0.9l-6.7,1.5l0,0l1.3,0.4
		L113.9,83.5z"/>
	<path d="M116.6,75.3c-0.1,0.5-0.4,1-0.7,1.3c-0.4,0.3-0.8,0.5-1.4,0.6l-0.2-0.9c0.8-0.1,1.3-0.4,1.4-1.1c0.1-0.4,0-0.7-0.2-1
		c-0.2-0.3-0.5-0.5-0.9-0.6l-4.9-1l0.2-0.9l4.8,1c0.7,0.2,1.3,0.5,1.6,0.9C116.6,74.1,116.7,74.6,116.6,75.3z"/>
	<path d="M117.6,68.6c-0.1,0.8-0.4,1.4-0.9,1.8c-0.6,0.4-1.3,0.6-2.1,0.6l-4.5-0.4l0.1-0.9l4.5,0.4c0.6,0.1,1.1-0.1,1.4-0.3
		s0.6-0.7,0.6-1.2c0-0.5-0.1-1-0.4-1.3c-0.3-0.3-0.8-0.5-1.3-0.6l-4.5-0.4l0.1-0.9l4.5,0.4c0.9,0.1,1.5,0.4,2,0.9
		C117.4,67.1,117.6,67.8,117.6,68.6z"/>
	<path d="M111.2,61.6l6.3-0.2l0,0.9l-6.3,0.2l0.1,2l-0.9,0l-0.2-4.9l0.9,0L111.2,61.6z"/>
	<path d="M117.3,57.9l0.2,1l-7.5-1.6l-0.2-1l6.7-3.8l0.2,1l-1.8,1l0.5,3L117.3,57.9z M111,56.6l3.4,0.7l-0.4-2.4L111,56.6L111,56.6z
		"/>
	<path d="M115.8,50l0.3,0.9l-6.8,2.1l-0.3-1.1l4.3-5l0,0l-1.3,0.4l-4,1.2l-0.3-0.9l6.8-2.1l0.3,0.9l-4.5,5.2l0,0l1.3-0.4L115.8,50z"
		/>
	<path d="M107.2,38c0.3-0.2,0.6-0.2,0.9-0.1s0.6,0.3,0.7,0.6c0.2,0.3,0.2,0.6,0.1,0.9c-0.1,0.3-0.3,0.6-0.6,0.7
		c-0.3,0.2-0.6,0.2-0.9,0.1s-0.6-0.3-0.7-0.6c-0.2-0.3-0.2-0.6-0.1-0.9S106.9,38.2,107.2,38z"/>
</g>
<path class="st1" d="M88,51.3c-3-0.9-6.2-1.3-9.3-1.3c-5.2,0-10.8,1.1-14.7,4c-3.9-2.9-9.5-4-14.7-4c-5.2,0-10.8,1.1-14.7,4v39.1
	c0,0.7,0.7,1.3,1.3,1.3c0.3,0,0.4-0.1,0.7-0.1c3.6-1.7,8.8-2.9,12.7-2.9c5.2,0,10.8,1.1,14.7,4c3.6-2.3,10.1-4,14.7-4
	c4.4,0,8.9,0.8,12.7,2.8c0.3,0.1,0.4,0.1,0.7,0.1c0.7,0,1.3-0.7,1.3-1.3V54C91.7,52.8,90,52,88,51.3z M47.7,76.6l-2.5,2.5L38.1,72
	l7.1-7.1l2.5,2.5L43.1,72L47.7,76.6z M53.2,79.1l-2.5-2.5l4.6-4.6l-4.6-4.6l2.5-2.5l7.1,7.1L53.2,79.1z M88,87.3
	c-2.9-0.9-6.1-1.3-9.3-1.3c-4.5,0-11.1,1.7-14.7,4V59.3c3.6-2.3,10.1-4,14.7-4c3.2,0,6.4,0.4,9.3,1.3V87.3z"/>
<path class="st1" d="M54.7,37.6v3.7c0,1,0.5,1.9,1.4,2.3l6.7,3.6c0.8,0.4,1.8,0.4,2.6,0l6.7-3.6c0.9-0.5,1.4-1.4,1.4-2.3v-3.7
	L65.3,42c-0.8,0.4-1.8,0.4-2.6,0L54.7,37.6z M62.7,24.7l-11.2,6.1c-0.9,0.5-0.9,1.8,0,2.3l11.2,6.1c0.8,0.4,1.8,0.4,2.6,0L76,33.5
	v7.9c0,0.7,0.6,1.3,1.3,1.3c0.7,0,1.3-0.6,1.3-1.3v-8.5c0-0.5-0.3-0.9-0.7-1.2l-12.7-6.9C64.5,24.3,63.5,24.3,62.7,24.7z"/>
<g>
	<path class="st1" d="M78.7,66c2.3,0,4.6,0.2,6.7,0.7v-4.1C83.2,62.2,81,62,78.7,62c-4.5,0-8.6,0.8-12,2.2v4.4
		C69.7,66.9,73.9,66,78.7,66z"/>
	<path class="st1" d="M66.7,71.3v4.4c3-1.7,7.2-2.6,12-2.6c2.3,0,4.6,0.2,6.7,0.7v-4.1c-2.1-0.4-4.4-0.6-6.7-0.6
		C74.1,69.1,70,69.9,66.7,71.3z"/>
	<path class="st1" d="M78.7,76.2c-4.5,0-8.6,0.8-12,2.2v4.4c3-1.7,7.2-2.6,12-2.6c2.3,0,4.6,0.2,6.7,0.7v-4.1
		C83.2,76.4,81,76.2,78.7,76.2z"/>
</g>
</svg>
